<?xml version="1.0" encoding="UTF-8" standalone="no"?>
<!DOCTYPE svg PUBLIC "-//W3C//DTD SVG 1.1//EN" "http://www.w3.org/Graphics/SVG/1.1/DTD/svg11.dtd">
<svg width="100%" height="100%" viewBox="0 0 1000 1000" version="1.1" xmlns="http://www.w3.org/2000/svg" xmlns:xlink="http://www.w3.org/1999/xlink" xml:space="preserve" xmlns:serif="http://www.serif.com/" style="fill-rule:evenodd;clip-rule:evenodd;stroke-linejoin:round;stroke-miterlimit:2;">
    <path d="M1000,102.925L1000,897.075C1000,953.881 953.881,1000 897.075,1000L102.925,1000C46.119,1000 0,953.881 0,897.075L0,102.925C0,46.119 46.119,0 102.925,0L897.075,0C953.881,0 1000,46.119 1000,102.925Z" style="fill:white;"/>
    <g transform="matrix(12.5,0,0,12.5,100,100)">
        <path d="M59.218,37.233C61.335,35.632 61.886,34.295 61.938,34.155C61.979,34.045 62,33.928 62,33.811L62,28.265C62,22.298 50.838,18.389 38.381,17.383L56.742,7.182C57.296,6.877 57.702,6.359 57.865,5.748C58.032,5.138 57.944,4.485 57.622,3.94L57.167,3.165C56.744,2.445 55.97,2.001 55.135,2C54.806,2 54.487,2.089 54.187,2.222L54.181,2.206L54.065,2.273C54.031,2.291 53.993,2.297 53.96,2.317L32,15.109L10.039,2.317C9.682,2.109 9.276,2 8.863,2C8.029,2 7.251,2.447 6.83,3.166L6.376,3.942C6.054,4.486 5.966,5.138 6.133,5.748C6.297,6.359 6.703,6.878 7.257,7.183L25.617,17.383C13.161,18.389 2,22.299 2,28.265L2,33.811C2,33.929 2.021,34.045 2.063,34.156C2.115,34.295 2.666,35.634 4.783,37.233L4.783,41.873L4.123,42.495C2.714,43.819 2,45.252 2,46.749L2,52.295C2,52.413 2.021,52.53 2.063,52.641C2.115,52.78 2.681,54.114 4.783,55.708L4.783,57.378C4.783,57.89 6.001,58.304 7.505,58.304C8.108,58.304 8.658,58.235 9.109,58.122C11.741,59.226 15.333,60.239 20.208,60.882L20.208,61.076C20.208,61.586 21.425,62 22.93,62C24.109,62 25.104,61.743 25.483,61.387C27.486,61.513 29.643,61.589 32.003,61.589C34.363,61.589 36.519,61.513 38.523,61.387C38.897,61.743 39.892,62 41.072,62C42.575,62 43.794,61.586 43.794,61.076L43.794,60.882C48.669,60.238 52.261,59.227 54.894,58.123C55.343,58.234 55.894,58.304 56.497,58.304C58,58.304 59.219,57.89 59.219,57.378L59.219,55.707C61.321,54.113 61.887,52.779 61.939,52.641C61.979,52.529 62,52.413 62,52.295L62,46.749C62,45.305 61.288,43.893 59.884,42.55L59.218,41.912L59.218,37.233M54.686,3.584C55.113,3.338 55.668,3.484 55.918,3.909L56.373,4.686C56.453,4.821 56.496,4.976 56.496,5.133C56.496,5.452 56.322,5.747 56.042,5.9L20.53,25.627C20.305,26.055 19.887,26.481 19.329,26.799C18.806,27.097 18.26,27.244 17.793,27.244C17.295,27.244 16.887,27.077 16.692,26.745C16.315,26.1 16.882,25.08 17.962,24.467C18.483,24.17 19.027,24.026 19.494,24.026L19.592,24.028L29.841,18.058L29.84,18.058L31.999,16.8L54.686,3.584M48.781,25.607C48.685,25.247 48.499,24.903 48.27,24.573C52.838,25.738 56.31,27.373 58.01,29.276C56.363,32.889 46.145,36.531 32,36.531C17.855,36.531 7.637,32.889 5.989,29.276C7.689,27.373 11.161,25.739 15.727,24.573C15.498,24.903 15.312,25.247 15.216,25.607C15.039,26.269 15.118,26.937 15.44,27.487C15.897,28.264 16.753,28.707 17.793,28.707C18.525,28.707 19.324,28.482 20.042,28.073C20.64,27.74 21.157,27.28 21.558,26.726L28.626,22.801C29.75,22.749 30.875,22.721 32,22.718C33.146,22.718 34.266,22.752 35.372,22.801L42.44,26.726C42.811,27.252 43.336,27.721 43.956,28.073C44.674,28.482 45.473,28.707 46.205,28.707C47.245,28.707 48.101,28.265 48.556,27.489C48.879,26.938 48.958,26.27 48.781,25.607M47.307,26.745C47.112,27.077 46.703,27.244 46.205,27.244C45.738,27.244 45.192,27.097 44.67,26.799C44.11,26.481 43.692,26.055 43.469,25.627L33.502,20.092L35.625,18.912L44.407,24.027L44.504,24.025C44.971,24.025 45.515,24.17 46.036,24.466C47.115,25.08 47.683,26.101 47.307,26.745M7.956,5.9C7.677,5.746 7.503,5.452 7.503,5.133C7.503,4.976 7.545,4.822 7.625,4.687L8.08,3.909C8.331,3.484 8.884,3.338 9.312,3.584L30.552,15.958L28.359,17.234L7.956,5.9M26.557,18.28L24.693,19.366C13.214,20.452 4.783,24.02 4.783,28.264C4.783,33.368 16.969,37.506 32.001,37.506C47.031,37.506 59.219,33.367 59.219,28.264C59.219,24.02 50.785,20.451 39.307,19.366L37.443,18.28C50.875,19.173 61.034,23.301 61.034,28.264C61.034,30.568 58.845,32.69 55.158,34.396C54.554,34.512 54.101,34.705 53.9,34.935C48.575,37.076 40.742,38.431 32,38.431C23.257,38.431 15.425,37.077 10.102,34.936C9.901,34.706 9.448,34.513 8.843,34.397C5.157,32.691 2.968,30.569 2.968,28.265C2.968,23.302 13.125,19.173 26.557,18.28M43.588,38.542C47.361,37.966 50.86,37.11 53.775,36.001L53.775,38.894C53.775,38.943 53.796,38.991 53.817,39.038C51.369,39.986 48.114,40.85 43.795,41.423L43.795,38.895C43.794,38.77 43.72,38.651 43.588,38.542M38.351,39.148L38.351,41.937C36.4,42.056 34.299,42.127 32,42.127C29.701,42.127 27.601,42.057 25.649,41.936L25.649,39.148C27.745,39.318 29.877,39.406 32,39.406C34.123,39.406 36.255,39.318 38.351,39.148M20.412,38.542C20.28,38.651 20.206,38.77 20.206,38.894L20.206,41.422C15.887,40.849 12.632,39.984 10.183,39.038C10.207,38.993 10.222,38.944 10.226,38.893L10.226,36C13.14,37.11 16.639,37.966 20.412,38.542M2.968,33.811L2.968,31.185C3.762,32.342 5.017,33.392 6.631,34.326C5.559,34.449 4.782,34.792 4.782,35.198L4.782,35.997C3.334,34.752 2.968,33.811 2.968,33.811M5.629,53.022C5.112,53.189 4.782,53.42 4.782,53.681L4.782,54.482C3.334,53.236 2.968,52.294 2.968,52.294L2.968,49.67C3.583,50.567 4.504,51.393 5.629,52.155L5.629,53.022M5.629,50.982C3.935,49.692 2.968,48.261 2.968,46.749C2.968,45.503 3.611,44.311 4.782,43.207L4.782,46.749C4.782,47.534 5.085,48.296 5.629,49.023L5.629,50.982M9.258,57.058C8.981,57.175 8.379,57.329 7.504,57.329C6.629,57.329 6.028,57.176 5.75,57.058L5.75,55.4C6.326,55.526 6.914,55.587 7.504,55.582C8.101,55.582 8.71,55.527 9.258,55.4L9.258,57.058M6.597,53.666L6.597,39.762C6.882,39.796 7.185,39.819 7.504,39.819C7.823,39.819 8.126,39.797 8.411,39.762L8.411,53.666C8.411,53.932 8.005,54.144 7.504,54.144C7.003,54.144 6.597,53.932 6.597,53.666M9.258,38.572C8.981,38.69 8.379,38.843 7.504,38.843C6.629,38.843 6.028,38.69 5.75,38.572L5.75,36.914C6.326,37.04 6.914,37.101 7.504,37.097C8.101,37.097 8.71,37.041 9.258,36.914L9.258,38.572M20.206,57.378L20.206,59.905C15.89,59.332 12.631,58.469 10.183,57.524C10.207,57.479 10.222,57.429 10.226,57.378L10.226,54.485C13.14,55.595 16.639,56.451 20.412,57.027C20.28,57.136 20.206,57.255 20.206,57.378M21.053,56.161C16.811,55.555 13.063,54.611 10.102,53.421C9.967,53.267 9.711,53.131 9.379,53.024L9.379,51.876C12.245,53.332 16.285,54.495 21.053,55.208L21.053,56.161M24.682,60.754C24.403,60.872 23.803,61.025 22.928,61.025C22.053,61.025 21.451,60.873 21.174,60.754L21.174,59.097C21.75,59.223 22.338,59.284 22.928,59.28C23.524,59.28 24.134,59.223 24.682,59.097L24.682,60.754M22.021,57.364L22.021,43.459C22.623,43.533 23.233,43.533 23.835,43.459L23.835,57.364C23.835,57.628 23.429,57.841 22.928,57.841C22.427,57.841 22.021,57.628 22.021,57.364M24.682,42.269C24.403,42.387 23.803,42.54 22.928,42.54C22.053,42.54 21.451,42.388 21.174,42.269L21.174,40.613C21.75,40.738 22.338,40.799 22.928,40.795C23.518,40.799 24.106,40.738 24.682,40.613L24.682,42.269M38.351,60.426C36.401,60.545 34.295,60.614 32,60.614C29.705,60.614 27.6,60.545 25.649,60.426L25.649,57.634C27.745,57.803 29.877,57.892 32,57.892C34.123,57.892 36.255,57.803 38.351,57.634L38.351,60.426M39.197,56.589C36.893,56.796 34.489,56.916 32,56.916C29.511,56.916 27.106,56.796 24.803,56.589L24.803,55.651C27.099,55.866 29.503,55.992 32,55.992C34.497,55.992 36.901,55.866 39.197,55.651L39.197,56.589M42.826,60.754C42.548,60.872 41.947,61.025 41.072,61.025C40.197,61.025 39.596,60.873 39.318,60.754L39.318,59.097C39.894,59.223 40.482,59.284 41.072,59.28C41.669,59.28 42.278,59.223 42.826,59.097L42.826,60.754M40.165,57.364L40.165,43.459C40.767,43.533 41.377,43.533 41.979,43.459L41.979,57.364C41.979,57.628 41.573,57.841 41.072,57.841C40.571,57.841 40.165,57.628 40.165,57.364M42.826,42.269C42.548,42.387 41.947,42.54 41.072,42.54C40.197,42.54 39.596,42.388 39.318,42.269L39.318,40.613C39.894,40.738 40.482,40.799 41.072,40.795C41.669,40.795 42.278,40.738 42.826,40.613L42.826,42.269M43.794,59.905L43.794,57.378C43.794,57.255 43.72,57.136 43.589,57.027C47.361,56.451 50.86,55.595 53.775,54.485L53.775,57.378C53.775,57.428 53.796,57.476 53.818,57.524C51.37,58.47 48.11,59.332 43.794,59.905M54.621,53.023C54.289,53.13 54.033,53.266 53.898,53.42C50.936,54.61 47.189,55.553 42.947,56.16L42.947,55.206C47.715,54.493 51.755,53.33 54.621,51.874L54.621,53.023M58.25,57.058C57.973,57.175 57.371,57.329 56.496,57.329C55.621,57.329 55.019,57.176 54.742,57.058L54.742,55.4C55.29,55.527 55.899,55.582 56.496,55.582C57.093,55.582 57.702,55.527 58.25,55.4L58.25,57.058M55.589,53.666L55.589,39.762C55.874,39.796 56.177,39.819 56.496,39.819C56.815,39.819 57.118,39.797 57.403,39.762L57.403,53.666C57.403,53.932 56.997,54.144 56.496,54.144C55.995,54.144 55.589,53.932 55.589,53.666M58.25,38.572C57.973,38.69 57.371,38.843 56.496,38.843C55.621,38.843 55.019,38.691 54.742,38.572L54.742,36.914C55.29,37.041 55.899,37.097 56.496,37.097C57.093,37.097 57.702,37.041 58.25,36.914L58.25,38.572M61.032,52.295C61.032,52.295 60.666,53.237 59.218,54.483L59.218,53.681C59.218,53.42 58.888,53.189 58.371,53.022L58.371,52.155C59.496,51.392 60.417,50.567 61.032,49.67L61.032,52.295M61.032,46.749C61.032,48.262 60.065,49.692 58.371,50.982L58.371,49.023C58.915,48.295 59.218,47.534 59.218,46.749L59.218,43.258C60.355,44.346 61.032,45.522 61.032,46.749M57.369,34.325C58.983,33.391 60.238,32.342 61.032,31.184L61.032,33.81C61.032,33.81 60.666,34.75 59.218,35.996L59.218,35.197C59.218,34.791 58.441,34.448 57.369,34.325" style="fill-rule:nonzero;"/>
    </g>
    <g transform="matrix(4.35613,0,0,2.58177,395.453,406.331)">
        <path d="M42,6L42,17L39,17L39,13.5C39,11.015 36.985,9 34.5,9L31,9L31,6L42,6Z"/>
        <path d="M15,24C15,19.029 19.029,15 24,15C28.971,15 33,19.029 33,24C33,28.971 28.971,33 24,33C19.029,33 15,28.971 15,24ZM24,18C20.686,18 18,20.686 18,24C18,27.314 20.686,30 24,30C27.314,30 30,27.314 30,24C30,20.686 27.314,18 24,18Z"/>
        <path d="M13.5,39L17,39L17,42L6,42L6,31L9,31L9,34.5C9,36.985 11.015,39 13.5,39Z"/>
        <path d="M42,42L31,42L31,39L34.5,39C36.985,39 39,36.985 39,34.5L39,31L42,31L42,42Z"/>
        <path d="M6,6L17,6L17,9L13.5,9C11.015,9 9,11.015 9,13.5L9,17L6,17L6,6Z"/>
    </g>
</svg>
